<?xml version="1.0" encoding="UTF-8" standalone="no"?>
<!-- Created with Inkscape (http://www.inkscape.org/) -->

<svg
   width="22.795565mm"
   height="26.283787mm"
   viewBox="0 0 22.795565 26.283787"
   version="1.1"
   id="svg1"
   xml:space="preserve"
   xmlns:xlink="http://www.w3.org/1999/xlink"
   xmlns="http://www.w3.org/2000/svg"
   xmlns:svg="http://www.w3.org/2000/svg"><defs
     id="defs1"><linearGradient
       id="linearGradient26"><stop
         style="stop-color:#e0446a;stop-opacity:1;"
         offset="0"
         id="stop26" /><stop
         style="stop-color:#5e3fbe;stop-opacity:1;"
         offset="1"
         id="stop27" /></linearGradient><linearGradient
       id="linearGradient22"><stop
         style="stop-color:#e0446a;stop-opacity:1;"
         offset="0"
         id="stop22" /><stop
         style="stop-color:#5e3fbe;stop-opacity:1;"
         offset="1"
         id="stop23" /></linearGradient><linearGradient
       id="linearGradient20"><stop
         style="stop-color:#a500b3;stop-opacity:1;"
         offset="0"
         id="stop19" /><stop
         style="stop-color:#e4a063;stop-opacity:1;"
         offset="1"
         id="stop20" /></linearGradient><linearGradient
       xlink:href="#linearGradient20"
       id="linearGradient25-9"
       x1="24.580046"
       y1="193.04015"
       x2="42.791203"
       y2="193.04015"
       gradientUnits="userSpaceOnUse" /><linearGradient
       xlink:href="#linearGradient22"
       id="linearGradient28"
       gradientUnits="userSpaceOnUse"
       x1="43.280495"
       y1="188.65739"
       x2="34.660625"
       y2="191.41869" /><linearGradient
       xlink:href="#linearGradient26"
       id="linearGradient29"
       gradientUnits="userSpaceOnUse"
       x1="33.276005"
       y1="182.32527"
       x2="22.355024"
       y2="185.70024" /></defs><g
     id="layer1"
     transform="translate(-28.72954,-54.575425)"><a
       id="a22-3"
       style="stroke:url(#linearGradient25-9)"
       transform="translate(5.5453803,-120.84215)"><path
         style="fill:none;fill-opacity:1;stroke:url(#linearGradient28);stroke-width:4;stroke-dasharray:none;stroke-opacity:1"
         d="m 40.791204,191.64184 c 0,4.06819 -2.502318,5.07373 -3.853265,5.07373 -1.350946,0 -7.048945,0.0484 -7.048945,0.0484 -0.756965,0 -2.373754,-0.0836 -3.541567,1.16418 -0.904386,0.96634 -1.407475,2.56381 -1.043911,1.40592 0.632833,-2.01547 3.089963,-9.5343 3.089963,-9.5343 0.36151,-1.34917 1.007281,-2.45466 2.85121,-2.65644 2.264126,0.0436 3.374639,-0.0187 5.636331,-0.0187 0,0 3.910185,0.449 3.910185,4.51719 z"
         id="path3-0-3" /><path
         style="fill:none;stroke:url(#linearGradient29);stroke-width:4;stroke-dasharray:none;stroke-opacity:1"
         d="m 43.979728,181.93479 c 0,4.06819 -2.502318,5.07373 -3.853265,5.07373 -1.350946,0 -7.048945,0.0484 -7.048945,0.0484 -0.756965,0 -2.373754,-0.0836 -3.541567,1.16418 -0.904386,0.96634 -1.407475,2.56381 -1.043911,1.40592 0.632833,-2.01547 3.089963,-9.5343 3.089963,-9.5343 0.36151,-1.34917 1.007281,-2.45466 2.85121,-2.65644 2.264126,0.0436 3.374639,-0.0187 5.636331,-0.0187 0,0 3.910185,0.449 3.910185,4.51719 z"
         id="path3-0-6-4" /></a></g></svg>
